<svg xmlns="http://www.w3.org/2000/svg" width="175.598" height="40" viewBox="0 0 175.598 40"><path d="M258.685,34.52h-14.74l-7.571,20.913h14.743Z" transform="translate(-113.328 -34.52)" fill="#fff"/><path d="M268.566,44.256l8.752,11.178h17.018l-9.788-11.061L301.5,34.521H284.223Z" transform="translate(-125.897 -34.52)" fill="#fff"/><path d="M214.389,38.522l1.451-4H178.1l-5.186,14.365a2.67,2.67,0,0,0,.3,2.75c.23.268,1.919,2.172,2.262,2.559a3.213,3.213,0,0,0,2.559,1.239h30.235l1.445-3.986-21.131,0a1.442,1.442,0,0,1-1.557-1.932l.958-2.638h23.377l1.448-4H189.415L191,38.522Z" transform="translate(-88.456 -34.52)" fill="#fff"/><path d="M141.117,34.52H103.6L96.022,55.434h14.362l6.082-16.911h10.716a1.246,1.246,0,0,1,1.343,1.675c-.263.861-.632,1.885-.9,2.53a2.559,2.559,0,0,1-2.483,1.533c-1.25,0-10.04.009-10.04.009l8.734,11.165h16.536l-7.433-8.369s2.959.006,4.458.006a3.828,3.828,0,0,0,3.826-2.493c.622-1.568,2-5.445,2.45-6.72.738-2.087-.459-3.337-2.556-3.337" transform="translate(-58.527 -34.52)" fill="#fff"/><path d="M76.963,34.52h-41l-1.449,4H48.651L42.533,55.433H56.452l6.123-16.911H75.512Z" transform="translate(-34.51 -34.52)" fill="#fff"/><g transform="translate(62.983 31.198)"><path d="M137.307,87.9V89.34h2.465v1.9h-2.465v3.232h-2.074V85.994h4.63v1.9Z" transform="translate(-135.233 -85.834)" fill="#fff"/><path d="M145.9,94.475V85.994h2.166v6.579h2.509v1.9Z" transform="translate(-139.788 -85.834)" fill="#fff"/><path d="M159.478,94.516a4.379,4.379,0,0,1-4.458-4.3,4.891,4.891,0,0,1,.332-1.811,3.954,3.954,0,0,1,.551-.951,4.455,4.455,0,1,1,3.575,7.06Zm.023-6.9a2.353,2.353,0,0,0-2.315,2.475,2.316,2.316,0,1,0,2.315-2.475Z" transform="translate(-143.684 -85.714)" fill="#fff"/><path d="M177.214,94.475l-1.96-2.739h-.023v2.739h-2.074V85.994h2.682a4.073,4.073,0,0,1,2.612.607,2.938,2.938,0,0,1,1.043,2.315,2.558,2.558,0,0,1-2.109,2.67l2.3,2.888ZM176.022,87.9h-.791v2.361H176c.814,0,1.421-.344,1.421-1.215C177.42,88.206,176.767,87.9,176.022,87.9Z" transform="translate(-151.43 -85.834)" fill="#fff"/><path d="M186.735,94.475V85.994H188.9v8.481Z" transform="translate(-157.23 -85.834)" fill="#fff"/><path d="M196.581,94.475h-2.968V85.994h2.808a4.08,4.08,0,0,1,3.747,1.582,4.478,4.478,0,0,1,.779,2.636C200.947,93,199.355,94.475,196.581,94.475Zm.137-6.578h-.94v4.676h.929c1.479,0,2.074-.952,2.074-2.327C198.782,88.893,198.163,87.9,196.719,87.9Z" transform="translate(-160.167 -85.834)" fill="#fff"/><path d="M213.193,94.475l-.413-1.226h-2.945l-.447,1.226h-2.327l3.4-8.481h1.708l3.37,8.481Zm-1.856-5.845H211.3l-.871,2.9h1.776Z" transform="translate(-165.911 -85.834)" fill="#fff"/></g></svg>